<svg width="46" height="46" viewBox="0 0 46 46" fill="none" xmlns="http://www.w3.org/2000/svg">
<path fill-rule="evenodd" clip-rule="evenodd" d="M21.949 3.14909C22.5997 2.78396 23.4009 2.78396 24.0507 3.14909C27.2659 4.95363 36.9412 10.3855 40.1574 12.19C40.8081 12.5542 41.2087 13.2288 41.2087 13.9591C41.2087 17.5682 41.2087 28.4309 41.2087 32.04C41.2087 32.7702 40.8081 33.4449 40.1574 33.81C36.9422 35.6145 27.2668 41.0464 24.0507 42.8509C23.4 43.216 22.5988 43.216 21.949 42.8509C18.7338 41.0464 9.05849 35.6145 5.84233 33.81C5.19258 33.4449 4.79199 32.7712 4.79199 32.0409C4.79199 28.4318 4.79199 17.5691 4.79199 13.96C4.79199 13.2298 5.19258 12.5551 5.84328 12.19C9.05753 10.3855 18.7348 4.95363 21.949 3.14909Z" fill="#00549D"/>
<path fill-rule="evenodd" clip-rule="evenodd" d="M5.08333 32.9705C4.82841 32.6294 4.79199 32.3054 4.79199 31.8694C4.79199 28.2814 4.79199 17.481 4.79199 13.892C4.79199 13.1656 5.19162 12.4948 5.84041 12.1325C9.04412 10.3385 18.6869 4.93832 21.8906 3.14336C22.5394 2.78015 23.4182 2.78782 24.067 3.15103C27.2707 4.94503 36.8808 10.2992 40.0845 12.0932C40.3433 12.2389 40.5407 12.4143 40.717 12.6452L5.08333 32.9705Z" fill="#0086D4"/>
<path fill-rule="evenodd" clip-rule="evenodd" d="M22.9997 9.58331C30.4047 9.58331 36.4163 15.5949 36.4163 23C36.4163 30.405 30.4047 36.4166 22.9997 36.4166C15.5946 36.4166 9.58301 30.405 9.58301 23C9.58301 15.5949 15.5946 9.58331 22.9997 9.58331ZM22.9997 16.2916C26.7017 16.2916 29.708 19.297 29.708 23C29.708 26.702 26.7017 29.7083 22.9997 29.7083C19.2976 29.7083 16.2913 26.702 16.2913 23C16.2913 19.297 19.2967 16.2916 22.9997 16.2916Z" fill="white"/>
<path fill-rule="evenodd" clip-rule="evenodd" d="M40.7152 12.6548C41.2097 13.1177 41.2001 13.8153 41.2001 14.3645C41.2001 18.0013 41.1694 28.3456 41.2087 31.9825C41.2126 32.362 41.087 32.7616 40.8992 33.0625L22.6104 23L40.7152 12.6548Z" fill="#0075C0"/>
<path fill-rule="evenodd" clip-rule="evenodd" d="M29.708 20.125H31.6247V25.875H29.708V20.125ZM36.4163 20.125H38.333V25.875H36.4163V20.125Z" fill="white"/>
<path fill-rule="evenodd" clip-rule="evenodd" d="M27.792 22.0417H33.542V23.9584H27.792V22.0417ZM34.5003 22.0417H40.2503V23.9584H34.5003V22.0417Z" fill="white"/>
</svg>
