<svg width="49" height="49" viewBox="0 0 49 49" fill="none" xmlns="http://www.w3.org/2000/svg">
<path d="M41.8538 5.10413H7.14551L10.208 39.8125L24.4997 43.8958L38.7913 39.8125L41.8538 5.10413Z" fill="#E65100"/>
<path d="M24.5 8.16663V40.7312L35.9333 37.4645L38.4854 8.16663H24.5Z" fill="#FF6D00"/>
<path d="M24.5 25.5209V21.4375H33.2792L32.5646 33.1771L24.5 35.8313V31.5438L28.6854 30.1146L28.9917 25.5209H24.5ZM33.5854 17.3542L33.8917 13.2709H24.5V17.3542H33.5854Z" fill="white"/>
<path d="M24.4995 31.5438V35.8313L16.435 33.1771L16.0266 27.5625H20.11L20.3141 30.1146L24.4995 31.5438ZM19.4975 17.3542H24.4995V13.2709H15.21L15.9245 25.5209H24.4995V21.4375H19.8037L19.4975 17.3542Z" fill="#EEEEEE"/>
</svg>
