<svg width="56" height="56" viewBox="0 0 56 56" fill="none" xmlns="http://www.w3.org/2000/svg">
<path d="M28.0551 5.83334C26.2409 5.83917 24.9833 5.999 23.4631 6.2615C18.9738 7.04317 18.1559 8.68467 18.1559 11.7098V16.3333H28.6559V18.6667H17.7569H12.6819C9.6066 18.6667 6.9151 20.1157 6.06227 23.5888C5.0986 27.5753 5.05543 30.072 6.06227 34.2347C6.82643 37.3392 8.50993 39.6667 11.5864 39.6667H15.8238V33.712C15.8238 30.2517 18.9574 26.8333 22.5484 26.8333H30.9904C33.9339 26.8333 36.8238 24.661 36.8238 21.7268V11.7098C36.8238 8.86434 34.7716 6.73634 31.9028 6.25917C31.9739 6.25217 29.8541 5.82634 28.0551 5.83334ZM22.2404 10.5C23.1983 10.5 23.9904 11.2898 23.9904 12.2523C23.9904 13.2242 23.1983 14 22.2404 14C21.2639 14 20.4904 13.2253 20.4904 12.2523C20.4904 11.2933 21.2639 10.5 22.2404 10.5Z" fill="#0277BD"/>
<path d="M26.9239 50.1666C28.7381 50.1608 29.9958 50.001 31.5159 49.7385C36.0053 48.9568 36.8231 47.3153 36.8231 44.2901V39.6666H26.3231V37.3333H37.2233H42.2983C45.3736 37.3333 48.0651 35.8843 48.9179 32.4111C49.8816 28.4246 49.9248 25.928 48.9179 21.7653C48.1526 18.6608 46.4691 16.3333 43.3926 16.3333H39.1553V22.288C39.1553 25.7483 36.0216 29.1666 32.4306 29.1666H23.9886C21.0451 29.1666 18.1553 31.339 18.1553 34.2731V44.2901C18.1553 47.1357 20.2074 49.2636 23.0763 49.7408C23.0051 49.7478 25.1249 50.1736 26.9239 50.1666ZM32.7398 45.5C31.7819 45.5 30.9898 44.7101 30.9898 43.7477C30.9898 42.7758 31.7819 42 32.7398 42C33.7163 42 34.4898 42.7746 34.4898 43.7477C34.4898 44.7066 33.7151 45.5 32.7398 45.5Z" fill="#FFC107"/>
</svg>
