<svg width="70" height="70" viewBox="0 0 70 70" fill="none" xmlns="http://www.w3.org/2000/svg">
<path d="M34.4898 36.3096C33.0344 33.9631 31.9786 32.0177 30.5159 28.3544C28.0425 22.1666 45.5586 16.5754 38.4565 5.83185C41.535 13.2533 27.4067 17.8412 26.0942 24.0216C24.894 29.7062 34.4825 36.3096 34.4898 36.3096Z" fill="#F44336"/>
<path d="M34.8225 25.1854C34.5425 28.8546 38.0731 30.8102 38.1752 33.4906C38.2568 35.6723 36.0649 37.4908 36.0649 37.4908C36.0649 37.4908 40.0433 36.7091 41.2843 33.3812C42.6624 29.6858 38.6097 27.1556 39.0268 24.1966C39.4162 21.3704 47.822 16.1131 47.822 16.1131C47.822 16.1131 35.4539 16.9327 34.8225 25.1854Z" fill="#F44336"/>
<path d="M46.7895 36.5385C49.3475 35.9639 51.5043 37.5929 51.5043 39.4698C51.5043 43.7004 45.6404 47.6992 45.6404 47.6992C45.6404 47.6992 54.7185 46.6171 54.7185 39.671C54.7185 35.0773 50.2604 33.9296 46.7895 36.5385ZM42.4802 39.951C42.4802 39.951 45.3108 37.9342 46.0648 37.1773C39.1187 38.6517 23.2593 38.85 23.2593 37.5696C23.2593 36.3898 28.3737 35.1808 28.3737 35.1808C28.3737 35.1808 17.0381 35.0175 17.0381 38.3615C17.0381 41.8469 31.8766 42.0962 42.4802 39.951Z" fill="#1565C0"/>
<path d="M40.7384 43.1244C34.1628 45.3104 22.0513 44.6119 25.6388 41.6763C23.8918 41.6763 21.3018 43.0806 21.3018 44.4311C21.3018 47.1392 34.4005 49.2304 44.0955 45.2652L40.7384 43.1244Z" fill="#1565C0"/>
<path d="M27.2505 47.7444C24.8647 47.7444 23.3203 49.2815 23.3203 50.4015C23.3203 53.8884 37.5536 54.2398 43.193 50.7004L39.6084 48.3204C35.3953 50.1725 24.8122 50.4277 27.2505 47.7444Z" fill="#1565C0"/>
<path d="M52.9098 53.4217C52.9098 52.0567 51.3713 51.4135 50.82 51.1058C54.0692 58.9414 18.2744 58.3333 18.2744 53.7075C18.2744 52.656 20.9096 51.6264 23.345 52.1135L21.2742 50.89C16.4208 50.1287 13.125 52.2623 13.125 53.9831C13.125 62.0083 52.9098 61.6219 52.9098 53.4217Z" fill="#1565C0"/>
<path d="M56.8753 56.2975C50.829 62.2694 35.4976 64.4452 20.0801 60.7556C35.4976 67.3225 56.8024 63.6242 56.8753 56.2975Z" fill="#1565C0"/>
</svg>
