<svg width="54" height="54" viewBox="0 0 54 54" fill="none" xmlns="http://www.w3.org/2000/svg">
<g clip-path="url(#clip0_53_440)">
<path d="M27 0C19.8392 0 12.9716 2.84464 7.90812 7.90812C2.84464 12.9716 0 19.8392 0 27C0 34.1608 2.84464 41.0284 7.90812 46.0919C12.9716 51.1554 19.8392 54 27 54C34.1608 54 41.0284 51.1554 46.0919 46.0919C51.1554 41.0284 54 34.1608 54 27C54 19.8392 51.1554 12.9716 46.0919 7.90812C41.0284 2.84464 34.1608 0 27 0V0ZM38.8125 25.3125C39.2601 25.3125 39.6893 25.4903 40.0057 25.8068C40.3222 26.1232 40.5 26.5524 40.5 27C40.5 27.4476 40.3222 27.8768 40.0057 28.1932C39.6893 28.5097 39.2601 28.6875 38.8125 28.6875H19.2611L26.5072 35.9302C26.6641 36.0871 26.7886 36.2734 26.8735 36.4784C26.9584 36.6834 27.0021 36.9031 27.0021 37.125C27.0021 37.3469 26.9584 37.5666 26.8735 37.7716C26.7886 37.9766 26.6641 38.1629 26.5072 38.3198C26.3504 38.4766 26.1641 38.6011 25.9591 38.686C25.7541 38.7709 25.5344 38.8146 25.3125 38.8146C25.0906 38.8146 24.8709 38.7709 24.6659 38.686C24.4609 38.6011 24.2746 38.4766 24.1178 38.3198L13.9928 28.1947C13.8356 28.038 13.7109 27.8518 13.6258 27.6468C13.5408 27.4417 13.497 27.222 13.497 27C13.497 26.778 13.5408 26.5583 13.6258 26.3532C13.7109 26.1482 13.8356 25.962 13.9928 25.8053L24.1178 15.6803C24.4346 15.3634 24.8644 15.1854 25.3125 15.1854C25.7606 15.1854 26.1904 15.3634 26.5072 15.6803C26.8241 15.9971 27.0021 16.4269 27.0021 16.875C27.0021 17.3231 26.8241 17.7529 26.5072 18.0697L19.2611 25.3125H38.8125Z" fill="black"/>
</g>
<defs>
<clipPath id="clip0_53_440">
<rect width="54" height="54" fill="white"/>
</clipPath>
</defs>
</svg>
